<svg width="40" height="40" viewBox="0 0 40 40" fill="none" xmlns="http://www.w3.org/2000/svg">
<path d="M28 15.9999C28 18.1216 27.1571 20.1564 25.6569 21.6567C24.1566 23.157 22.1217 23.9998 20 23.9998C17.8783 23.9998 15.8434 23.157 14.3431 21.6567C12.8429 20.1564 12 18.1216 12 15.9999C12 13.8782 12.8429 11.8434 14.3431 10.3431C15.8434 8.84284 17.8783 8 20 8C22.1217 8 24.1566 8.84284 25.6569 10.3431C27.1571 11.8434 28 13.8782 28 15.9999Z" fill="#2A333A"/>
<path fill-rule="evenodd" clip-rule="evenodd" d="M19.184 39.9836C8.517 39.5556 0 30.7717 0 19.9998C0 8.9539 8.954 0 20 0C31.046 0 40 8.9539 40 19.9998C40 31.0457 31.046 39.9996 20 39.9996C19.9087 40.0001 19.8173 40.0001 19.726 39.9996C19.545 39.9996 19.364 39.9936 19.184 39.9836ZM7.166 32.6196C7.01646 32.1902 6.96557 31.7326 7.01708 31.2808C7.0686 30.8291 7.22121 30.3947 7.46358 30.0099C7.70595 29.6252 8.03186 29.3 8.41712 29.0584C8.80238 28.8169 9.2371 28.6652 9.689 28.6147C17.485 27.7517 22.563 27.8297 30.321 28.6327C30.7735 28.6798 31.2093 28.8296 31.5952 29.0706C31.9811 29.3116 32.3068 29.6374 32.5477 30.0234C32.7886 30.4093 32.9383 30.8451 32.9853 31.2976C33.0323 31.7502 32.9754 32.2074 32.819 32.6346C36.1439 29.2706 38.006 24.7297 38 19.9998C38 10.0589 29.941 1.99998 20 1.99998C10.059 1.99998 2 10.0589 2 19.9998C2 24.9157 3.971 29.3717 7.166 32.6196Z" fill="#2A333A"/>
</svg>
